  0
SECTION
  2
HEADER
  9
$ACADVER
  1
AC1015
  9
$INSUNITS
 70
4
  0
ENDSEC
  0
SECTION
  2
TABLES
  0
TABLE
  2
LAYER
 70
1
  0
LAYER
  2
CUT
 70
0
 62
1
  6
CONTINUOUS
  0
ENDTAB
  0
ENDSEC
  0
SECTION
  2
ENTITIES
  999
Card slot 1 - 63x88mm
  0
LINE
  8
CUT
 10
12.250000
 20
193.750000
 30
0.0
 11
69.250000
 21
193.750000
 31
0.0
  0
LINE
  8
CUT
 10
69.250000
 20
281.750000
 30
0.0
 11
12.250000
 21
281.750000
 31
0.0
  0
LINE
  8
CUT
 10
9.250000
 20
278.750000
 30
0.0
 11
9.250000
 21
196.750000
 31
0.0
  0
LINE
  8
CUT
 10
72.250000
 20
196.750000
 30
0.0
 11
72.250000
 21
278.750000
 31
0.0
  0
ARC
  8
CUT
 10
12.250000
 20
196.750000
 30
0.0
 40
3.000000
 50
180.000000
 51
270.000000
  0
ARC
  8
CUT
 10
69.250000
 20
196.750000
 30
0.0
 40
3.000000
 50
270.000000
 51
360.000000
  0
ARC
  8
CUT
 10
69.250000
 20
278.750000
 30
0.0
 40
3.000000
 50
0.000000
 51
90.000000
  0
ARC
  8
CUT
 10
12.250000
 20
278.750000
 30
0.0
 40
3.000000
 50
90.000000
 51
180.000000
  999
Card slot 2 - 63x88mm
  0
LINE
  8
CUT
 10
76.500000
 20
193.750000
 30
0.0
 11
133.500000
 21
193.750000
 31
0.0
  0
LINE
  8
CUT
 10
133.500000
 20
281.750000
 30
0.0
 11
76.500000
 21
281.750000
 31
0.0
  0
LINE
  8
CUT
 10
73.500000
 20
278.750000
 30
0.0
 11
73.500000
 21
196.750000
 31
0.0
  0
LINE
  8
CUT
 10
136.500000
 20
196.750000
 30
0.0
 11
136.500000
 21
278.750000
 31
0.0
  0
ARC
  8
CUT
 10
76.500000
 20
196.750000
 30
0.0
 40
3.000000
 50
180.000000
 51
270.000000
  0
ARC
  8
CUT
 10
133.500000
 20
196.750000
 30
0.0
 40
3.000000
 50
270.000000
 51
360.000000
  0
ARC
  8
CUT
 10
133.500000
 20
278.750000
 30
0.0
 40
3.000000
 50
0.000000
 51
90.000000
  0
ARC
  8
CUT
 10
76.500000
 20
278.750000
 30
0.0
 40
3.000000
 50
90.000000
 51
180.000000
  999
Card slot 3 - 63x88mm
  0
LINE
  8
CUT
 10
140.750000
 20
193.750000
 30
0.0
 11
197.750000
 21
193.750000
 31
0.0
  0
LINE
  8
CUT
 10
197.750000
 20
281.750000
 30
0.0
 11
140.750000
 21
281.750000
 31
0.0
  0
LINE
  8
CUT
 10
137.750000
 20
278.750000
 30
0.0
 11
137.750000
 21
196.750000
 31
0.0
  0
LINE
  8
CUT
 10
200.750000
 20
196.750000
 30
0.0
 11
200.750000
 21
278.750000
 31
0.0
  0
ARC
  8
CUT
 10
140.750000
 20
196.750000
 30
0.0
 40
3.000000
 50
180.000000
 51
270.000000
  0
ARC
  8
CUT
 10
197.750000
 20
196.750000
 30
0.0
 40
3.000000
 50
270.000000
 51
360.000000
  0
ARC
  8
CUT
 10
197.750000
 20
278.750000
 30
0.0
 40
3.000000
 50
0.000000
 51
90.000000
  0
ARC
  8
CUT
 10
140.750000
 20
278.750000
 30
0.0
 40
3.000000
 50
90.000000
 51
180.000000
  999
Card slot 4 - 63x88mm
  0
LINE
  8
CUT
 10
12.250000
 20
104.500000
 30
0.0
 11
69.250000
 21
104.500000
 31
0.0
  0
LINE
  8
CUT
 10
69.250000
 20
192.500000
 30
0.0
 11
12.250000
 21
192.500000
 31
0.0
  0
LINE
  8
CUT
 10
9.250000
 20
189.500000
 30
0.0
 11
9.250000
 21
107.500000
 31
0.0
  0
LINE
  8
CUT
 10
72.250000
 20
107.500000
 30
0.0
 11
72.250000
 21
189.500000
 31
0.0
  0
ARC
  8
CUT
 10
12.250000
 20
107.500000
 30
0.0
 40
3.000000
 50
180.000000
 51
270.000000
  0
ARC
  8
CUT
 10
69.250000
 20
107.500000
 30
0.0
 40
3.000000
 50
270.000000
 51
360.000000
  0
ARC
  8
CUT
 10
69.250000
 20
189.500000
 30
0.0
 40
3.000000
 50
0.000000
 51
90.000000
  0
ARC
  8
CUT
 10
12.250000
 20
189.500000
 30
0.0
 40
3.000000
 50
90.000000
 51
180.000000
  999
Card slot 5 - 63x88mm
  0
LINE
  8
CUT
 10
76.500000
 20
104.500000
 30
0.0
 11
133.500000
 21
104.500000
 31
0.0
  0
LINE
  8
CUT
 10
133.500000
 20
192.500000
 30
0.0
 11
76.500000
 21
192.500000
 31
0.0
  0
LINE
  8
CUT
 10
73.500000
 20
189.500000
 30
0.0
 11
73.500000
 21
107.500000
 31
0.0
  0
LINE
  8
CUT
 10
136.500000
 20
107.500000
 30
0.0
 11
136.500000
 21
189.500000
 31
0.0
  0
ARC
  8
CUT
 10
76.500000
 20
107.500000
 30
0.0
 40
3.000000
 50
180.000000
 51
270.000000
  0
ARC
  8
CUT
 10
133.500000
 20
107.500000
 30
0.0
 40
3.000000
 50
270.000000
 51
360.000000
  0
ARC
  8
CUT
 10
133.500000
 20
189.500000
 30
0.0
 40
3.000000
 50
0.000000
 51
90.000000
  0
ARC
  8
CUT
 10
76.500000
 20
189.500000
 30
0.0
 40
3.000000
 50
90.000000
 51
180.000000
  999
Card slot 6 - 63x88mm
  0
LINE
  8
CUT
 10
140.750000
 20
104.500000
 30
0.0
 11
197.750000
 21
104.500000
 31
0.0
  0
LINE
  8
CUT
 10
197.750000
 20
192.500000
 30
0.0
 11
140.750000
 21
192.500000
 31
0.0
  0
LINE
  8
CUT
 10
137.750000
 20
189.500000
 30
0.0
 11
137.750000
 21
107.500000
 31
0.0
  0
LINE
  8
CUT
 10
200.750000
 20
107.500000
 30
0.0
 11
200.750000
 21
189.500000
 31
0.0
  0
ARC
  8
CUT
 10
140.750000
 20
107.500000
 30
0.0
 40
3.000000
 50
180.000000
 51
270.000000
  0
ARC
  8
CUT
 10
197.750000
 20
107.500000
 30
0.0
 40
3.000000
 50
270.000000
 51
360.000000
  0
ARC
  8
CUT
 10
197.750000
 20
189.500000
 30
0.0
 40
3.000000
 50
0.000000
 51
90.000000
  0
ARC
  8
CUT
 10
140.750000
 20
189.500000
 30
0.0
 40
3.000000
 50
90.000000
 51
180.000000
  999
Card slot 7 - 63x88mm
  0
LINE
  8
CUT
 10
12.250000
 20
15.250000
 30
0.0
 11
69.250000
 21
15.250000
 31
0.0
  0
LINE
  8
CUT
 10
69.250000
 20
103.250000
 30
0.0
 11
12.250000
 21
103.250000
 31
0.0
  0
LINE
  8
CUT
 10
9.250000
 20
100.250000
 30
0.0
 11
9.250000
 21
18.250000
 31
0.0
  0
LINE
  8
CUT
 10
72.250000
 20
18.250000
 30
0.0
 11
72.250000
 21
100.250000
 31
0.0
  0
ARC
  8
CUT
 10
12.250000
 20
18.250000
 30
0.0
 40
3.000000
 50
180.000000
 51
270.000000
  0
ARC
  8
CUT
 10
69.250000
 20
18.250000
 30
0.0
 40
3.000000
 50
270.000000
 51
360.000000
  0
ARC
  8
CUT
 10
69.250000
 20
100.250000
 30
0.0
 40
3.000000
 50
0.000000
 51
90.000000
  0
ARC
  8
CUT
 10
12.250000
 20
100.250000
 30
0.0
 40
3.000000
 50
90.000000
 51
180.000000
  999
Card slot 8 - 63x88mm
  0
LINE
  8
CUT
 10
76.500000
 20
15.250000
 30
0.0
 11
133.500000
 21
15.250000
 31
0.0
  0
LINE
  8
CUT
 10
133.500000
 20
103.250000
 30
0.0
 11
76.500000
 21
103.250000
 31
0.0
  0
LINE
  8
CUT
 10
73.500000
 20
100.250000
 30
0.0
 11
73.500000
 21
18.250000
 31
0.0
  0
LINE
  8
CUT
 10
136.500000
 20
18.250000
 30
0.0
 11
136.500000
 21
100.250000
 31
0.0
  0
ARC
  8
CUT
 10
76.500000
 20
18.250000
 30
0.0
 40
3.000000
 50
180.000000
 51
270.000000
  0
ARC
  8
CUT
 10
133.500000
 20
18.250000
 30
0.0
 40
3.000000
 50
270.000000
 51
360.000000
  0
ARC
  8
CUT
 10
133.500000
 20
100.250000
 30
0.0
 40
3.000000
 50
0.000000
 51
90.000000
  0
ARC
  8
CUT
 10
76.500000
 20
100.250000
 30
0.0
 40
3.000000
 50
90.000000
 51
180.000000
  999
Card slot 9 - 63x88mm
  0
LINE
  8
CUT
 10
140.750000
 20
15.250000
 30
0.0
 11
197.750000
 21
15.250000
 31
0.0
  0
LINE
  8
CUT
 10
197.750000
 20
103.250000
 30
0.0
 11
140.750000
 21
103.250000
 31
0.0
  0
LINE
  8
CUT
 10
137.750000
 20
100.250000
 30
0.0
 11
137.750000
 21
18.250000
 31
0.0
  0
LINE
  8
CUT
 10
200.750000
 20
18.250000
 30
0.0
 11
200.750000
 21
100.250000
 31
0.0
  0
ARC
  8
CUT
 10
140.750000
 20
18.250000
 30
0.0
 40
3.000000
 50
180.000000
 51
270.000000
  0
ARC
  8
CUT
 10
197.750000
 20
18.250000
 30
0.0
 40
3.000000
 50
270.000000
 51
360.000000
  0
ARC
  8
CUT
 10
197.750000
 20
100.250000
 30
0.0
 40
3.000000
 50
0.000000
 51
90.000000
  0
ARC
  8
CUT
 10
140.750000
 20
100.250000
 30
0.0
 40
3.000000
 50
90.000000
 51
180.000000
  0
ENDSEC
  0
EOF
